{"title":"Kara Sevda S01E31.DVB-T.X264.ARI Greek Subs","uid":15368180,"size":452711452,"categoryP":"video","categoryS":"tv_shows","magnet":"?xt=urn:btih:a63f832d95647d1a4a7decfa7841680f1cc0bb74&amp;dn=Kara+Sevda+S01E31.DVB-T.X264.ARI+Greek+Subs&amp;tr=udp%3A%2F%2Ftracker.leechers-paradise.org%3A6969&amp;tr=udp%3A%2F%2Fzer0day.ch%3A1337&amp;tr=udp%3A%2F%2Fopen.demonii.com%3A1337&amp;tr=udp%3A%2F%2Ftracker.coppersurfer.tk%3A6969&amp;tr=udp%3A%2F%2Fexodus.desync.com%3A6969","seeders":5,"leechers":0,"uploader":"Aris2015","files":1,"time":1469100257,"description":"General\r\nComplete name               : Kara Sevda S01E31.DVB-T.X264.ARI.mp4\r\nFormat                      : MPEG-4\r\nFormat profile              : Base Media\r\nCodec ID                    : isom (isom/iso2/avc1/mp41)\r\nFile size                   : 432 MiB\r\nDuration                    : 53mn 9s\r\nOverall bit rate mode       : Variable\r\nOverall bit rate            : 1 136 Kbps\r\nWriting application         : Lavf54.63.104\r\n\r\nVideo\r\nID                          : 1\r\nFormat                      : AVC\r\nFormat/Info                 : Advanced Video Codec\r\nFormat profile              :   \r\nFormat settings, CABAC      : Yes\r\nFormat settings, ReFrames   : 3 frames\r\nCodec ID                    : avc1\r\nCodec ID/Info               : Advanced Video Coding\r\nDuration                    : 53mn 9s\r\nBit rate mode               : Variable\r\nBit rate                    : 1 004 Kbps\r\nMaximum bit rate            : 9 800 Kbps\r\nWidth                       : 720 pixels\r\nHeight                      : 576 pixels\r\nDisplay aspect ratio        : 16:9\r\nOriginal display aspect rat : 16:9\r\nFrame rate mode             : Constant\r\nFrame rate                  : 25.000 fps\r\nStandard                    : PAL\r\nColor space                 : YUV\r\nChroma subsampling          : 4:2:0\r\nBit depth                   : 8 bits\r\nScan type                   : Interlaced\r\nScan type, store method     : Separated fields\r\nScan order                  : Top Field First\r\nBits/(Pixel*Frame)          : 0.097\r\nStream size                 : 382 MiB (88%)\r\nColor range                 : Limited\r\n\r\nAudio\r\nID                          : 2\r\nFormat                      : AAC\r\nFormat/Info                 : Advanced Audio Codec\r\nFormat profile              : LC\r\nCodec ID                    : 40\r\nDuration                    : 53mn 9s\r\nDuration_LastFrame          : -21ms\r\nBit rate mode               : Variable\r\nBit rate                    : 125 Kbps\r\nMaximum bit rate            : 128 Kbps\r\nChannel(s)                  : 2 channels\r\nChannel positions           : Front: L R\r\nSampling rate               : 48.0 KHz\r\nFrame rate                  : 46.875 fps (1024 spf)\r\nCompression mode            : Lossy\r\nStream size                 : 47.7 MiB (11%)\r\nLanguage                    : Turkish\r\nDefault                     : Yes","torrent":{"xt":"urn:btih:a63f832d95647d1a4a7decfa7841680f1cc0bb74","amp;dn":"Kara+Sevda+S01E31.DVB-T.X264.ARI+Greek+Subs","amp;tr":["udp%3A%2F%2Ftracker.leechers-paradise.org%3A6969","udp%3A%2F%2Fzer0day.ch%3A1337","udp%3A%2F%2Fopen.demonii.com%3A1337","udp%3A%2F%2Ftracker.coppersurfer.tk%3A6969","udp%3A%2F%2Fexodus.desync.com%3A6969"],"infoHash":"a63f832d95647d1a4a7decfa7841680f1cc0bb74","infoHashBuffer":{"type":"Buffer","data":[166,63,131,45,149,100,125,26,74,125,236,250,120,65,104,15,28,192,187,116]},"announce":[],"urlList":[]}}